custom-analysis
version=1
nRows=11
nColumns=42
inDegrees=no

This file contains tibia displacement and acting force.

Units are S.I. units (seconds, meters, Newtons, ...)
Angles are in degrees.

endheader
time	APT	SIT	knee_angle	aACL_R_force	pACL_R_force	aPCL_R_force	pPCL_R_force	aMCL_R_force	mMCL_R_force	pMCL_R_force	aLCL_R_force	mLCL_R_force	pLCL_R_force	aACL_R_length	pACL_R_length	aPCL_R_length	pPCL_R_length	aMCL_R_length	mMCL_R_length	pMCL_R_length	aLCL_R_length	mLCL_R_length	pLCL_R_length	aACL_R_strain	pACL_R_strain	aPCL_R_strain	pPCL_R_strain	aMCL_R_strain	mMCL_R_strain	pMCL_R_strain	aLCL_R_strain	mLCL_R_strain	pLCL_R_strain	femur_lat_meniscii_force_r	femur_lat_meniscii_torque_r	femur_med_meniscii_force_r	femur_med_meniscii_torque_r	femur_lat_tibia_force_r	femur_lat_tibia_torque_r	femur_med_tibia_force_r	femur_med_tibia_torque_r
      0.43680892	      0.00099554	     -0.00032061	      1.66574369	     19.56315120	     37.90042168	      0.00000000	      0.00000000	      0.00000000	      3.04936303	     15.92202551	      3.66924199	      0.00000000	      5.92895350	      0.03363105	      0.02801689	      0.02901658	      0.02946132	      0.05629740	      0.06122356	      0.06358886	      0.05714002	      0.05565056	      0.05383279	      0.05078962	      0.06290853	     -0.06684990	     -0.02082184	     -0.02980680	      0.02391668	      0.04710936	      0.02077304	     -0.01186175	      0.02846799	     79.32464579	     16.10078051	     91.31928476	     19.88021656	      0.00000000	      0.00000000	      0.00000000	      0.00000000
      0.44092561	      0.00099337	     -0.00032090	      1.66574369	     19.38966838	     37.82248177	      0.00000000	      0.00000000	      0.00000000	      2.32381036	     15.17774755	      2.72730385	      0.00000000	      4.99434069	      0.03363329	      0.02802000	      0.02901659	      0.02946089	      0.05629270	      0.06121915	      0.06358467	      0.05714518	      0.05565586	      0.05383816	      0.05085970	      0.06302658	     -0.06684980	     -0.02083587	     -0.02988781	      0.02384292	      0.04704033	      0.02086534	     -0.01176767	      0.02857065	     78.81101625	     16.00620525	     93.79313038	     20.41119094	      0.00000000	      0.00000000	      0.00000000	      0.00000000
      0.44410131	      0.00099187	     -0.00031918	      1.66574369	     19.70327235	     38.19242026	      0.00000000	      0.00000000	      0.00000000	      3.13613735	     15.94047727	      3.89531160	      0.00000000	      6.16007228	      0.03363390	      0.02802138	      0.02901455	      0.02945851	      0.05628710	      0.06121379	      0.06357948	      0.05714698	      0.05565774	      0.05384010	      0.05087881	      0.06307880	     -0.06691526	     -0.02091519	     -0.02998431	      0.02375322	      0.04695502	      0.02089736	     -0.01173423	      0.02860766	     76.13524669	     15.45369333	     93.41045254	     20.24895986	      0.00000000	      0.00000000	      0.00000000	      0.00000000
      0.44727702	      0.00098968	     -0.00031940	      1.66574369	     19.55086903	     38.11784600	      0.00000000	      0.00000000	      0.00000000	      2.50673771	     15.29974083	      2.98394277	      0.00000000	      5.25660387	      0.03363581	      0.02802405	      0.02901445	      0.02945809	      0.05628336	      0.06121031	      0.06357614	      0.05715071	      0.05566156	      0.05384396	      0.05093849	      0.06318043	     -0.06691849	     -0.02092910	     -0.03004875	      0.02369503	      0.04690002	      0.02096402	     -0.01166657	      0.02868143	     76.03247850	     15.43948546	     95.42888455	     20.64691932	      0.00000000	      0.00000000	      0.00000000	      0.00000000
      0.45045272	      0.00098794	     -0.00031819	      1.66574369	     19.72151407	     38.34603803	      0.00000000	      0.00000000	      0.00000000	      2.95426936	     15.70973464	      3.56388046	      0.00000000	      5.83809104	      0.03363689	      0.02802593	      0.02901278	      0.02945611	      0.05627832	      0.06120552	      0.06357152	      0.05715269	      0.05566362	      0.05384608	      0.05097233	      0.06325157	     -0.06697212	     -0.02099498	     -0.03013559	      0.02361501	      0.04682383	      0.02099952	     -0.01162991	      0.02872180	     74.26247655	     15.08910551	     95.66265907	     20.64811254	      0.00000000	      0.00000000	      0.00000000	      0.00000000
      0.45443005	      0.00098541	     -0.00031834	      1.66574369	     19.52291416	     38.22949657	      0.00000000	      0.00000000	      0.00000000	      2.28023619	     15.02217330	      2.51092571	      0.00000000	      4.79444309	      0.03363915	      0.02802910	      0.02901248	      0.02945545	      0.05627392	      0.06120143	      0.06356758	      0.05715678	      0.05566779	      0.05385030	      0.05104292	      0.06337186	     -0.06698167	     -0.02101668	     -0.03021152	      0.02354648	      0.04675896	      0.02107242	     -0.01155589	      0.02880253	     74.21189926	     15.08459008	     98.06482465	     21.14072194	      0.00000000	      0.00000000	      0.00000000	      0.00000000
      0.45761838	      0.00098413	     -0.00031654	      1.66574369	     19.81407104	     38.55500723	      0.00000000	      0.00000000	      0.00000000	      3.22435604	     15.91931313	      3.74162568	      0.00000000	      6.02279213	      0.03363964	      0.02803029	      0.02901024	      0.02945293	      0.05626878	      0.06119651	      0.06356281	      0.05715771	      0.05566879	      0.05385135	      0.05105805	      0.06341686	     -0.06705373	     -0.02110056	     -0.03030001	      0.02346426	      0.04668050	      0.02108911	     -0.01153805	      0.02882254	     71.94375010	     14.61589557	     97.40483317	     20.94442783	      0.00000000	      0.00000000	      0.00000000	      0.00000000
      0.46080670	      0.00098241	     -0.00031683	      1.66574369	     19.60787839	     38.39590122	      0.00000000	      0.00000000	      0.00000000	      2.65651729	     15.34540458	      2.81806965	      0.00000000	      5.10597211	      0.03364117	      0.02803241	      0.02901033	      0.02945277	      0.05626602	      0.06119395	      0.06356036	      0.05716076	      0.05567191	      0.05385450	      0.05110593	      0.06349726	     -0.06705105	     -0.02110602	     -0.03034753	      0.02342147	      0.04664012	      0.02114366	     -0.01148273	      0.02888282	     72.15314891	     14.65761618	     99.36867652	     21.35174619	      0.00000000	      0.00000000	      0.00000000	      0.00000000
      0.46399503	      0.00098131	     -0.00031572	      1.66574369	     19.74275857	     38.55079386	      0.00000000	      0.00000000	      0.00000000	      3.19486817	     15.85186975	      3.43923553	      0.00000000	      5.72658117	      0.03364157	      0.02803332	      0.02900906	      0.02945125	      0.05626227	      0.06119035	      0.06355689	      0.05716209	      0.05567329	      0.05385593	      0.05111836	      0.06353201	     -0.06709194	     -0.02115643	     -0.03041228	      0.02336130	      0.04658288	      0.02116732	     -0.01145815	      0.02890997	     70.74388115	     14.36890328	     99.31348625	     21.30541963	      0.00000000	      0.00000000	      0.00000000	      0.00000000
      0.46796059	      0.00097971	     -0.00031618	      1.66574369	     19.49565066	     38.33793324	      0.00000000	      0.00000000	      0.00000000	      2.55590144	     15.20983999	      2.34729261	      0.00000000	      4.64113318	      0.03364282	      0.02803506	      0.02900958	      0.02945151	      0.05625992	      0.06118817	      0.06355480	      0.05716544	      0.05567671	      0.05385939	      0.05115745	      0.06359793	     -0.06707513	     -0.02114770	     -0.03045271	      0.02332476	      0.04654862	      0.02122729	     -0.01139741	      0.02897609	     71.09949261	     14.44470397	    101.47701734	     21.74340791	      0.00000000	      0.00000000	      0.00000000	      0.00000000
      0.47112016	      0.00097921	     -0.00031463	      1.66574369	     19.77380657	     38.61448766	      0.00000000	      0.00000000	      0.00000000	      3.53717356	     16.15279933	      3.57351967	      0.00000000	      5.86222759	      0.03364242	      0.02803499	      0.02900804	      0.02944977	      0.05625657	      0.06118491	      0.06355165	      0.05716572	      0.05567704	      0.05385974	      0.05114496	      0.06359547	     -0.06712461	     -0.02120548	     -0.03051045	      0.02327025	      0.04649665	      0.02123227	     -0.01139161	      0.02898287	     69.25441947	     14.06842312	    100.38308361	     21.47710270	      0.00000000	      0.00000000	      0.00000000	      0.00000000
